<?xml version="1.0" encoding="UTF-8"?><svg xmlns="http://www.w3.org/2000/svg" viewBox="0 0 545.7 546.1"><defs><style>.cls-1{fill:#7f7f7f;}.cls-1,.cls-2{stroke-width:0px;}.cls-2{fill:#123456;}</style></defs><g id="L_Layer_copy"><path class="cls-1" d="M445.7,0c58.1-1.3,84.3,52.7,89.1,63.7s23.7,70.5-15.1,131-101,94.2-121.2,110.8c-22.4,18.4-76.5,62.2-113.2,94.5,84.3,3.6,172.3-.4,257.8,1.4,4.1,1.6,1.9,7.3,2.4,10.7,0,12.1.6,24.3-.5,36.3-4.4,46.8-35.2,86.5-82.5,95.8-13.7,2.1-27.6.7-41.3,1.1-78.3,0-156.6,0-234.9,0-3.6,0-9.9,1.2-9.9-4.1-.5-15.5-.4-31.1.9-46.6,4.3-73.4,15.2-85.3,68-129.4s155.2-126.6,188.4-155,35.3-24.3,53-60.7c10-20.4,12.7-45,1.2-68.7s-18.3-21.8-24.9-25.5c-.4-.1-1.6,11.6-1.8,13-1.2,12.7-3.6,30.3-7.4,40-13.6,34.7-26.1,57.1-75.6,102.8-62.8,58.1-119.7,87.1-215.1,193.2-25.4,28.2-22.8,99.6-23.6,140.5-8.2-8.4-39.5-23.1-53.8-2.5-5.3,4.7,7.6-91.9,14.3-121.2,19.9-86.8,118.6-144.8,184.7-200.8,44.4-38.2,66.7-53.7,100.7-89.9,3.6-4.4,9.8-15.4,12.4-20.9,15.6-32.2,14.1-75.9,14.5-109.4M411.7,455.6c-19.6-.1-39.3,0-58.9,0-33.4,0-66.7-.2-100.1.2-6.1,0-13.1,1.4-15.6,8.4-3.4,9.5-6,19.3-9.3,30.1,4.3,0,6.9,0,9.6,0,69,0,138,0,207,.1,21.3,0,35.5-10.2,44.5-28.8,2.5-5.3,2-9.2-4-9.8"/></g><g id="Z_Layer"><path class="cls-2" d="M140.4,495.3c-.1,16.8,0,27.3-.1,44.1,0,2,0,3.9,0,5.9-17.9,0-35.2,1.9-51.8-.4-29.6-4.1-52.4-20.4-68.7-45.4-22.4-34.2-23.4-71.2-12-109,9.5-31.8,28.9-57.4,53.9-78.5,27.6-23.3,55.8-46,83.7-69,38.8-32,77.6-64,116.4-96,1.3-1,2.2-1.9,4.4-3.8-89.4,0-177.1,0-266,0,0-6.8,0-13.1,0-19.4-.1-15.7.6-31.3,5-46.5C15.1,41.9,48.7-.3,108,0c219.3.2,155.7,0,233.5.1,9.3,0,18.6,0,27.9,0s4.6,0,6.6,0c2.8,46.3-.4,90.5-26.6,130.3-15,22.7-34.2,41.2-55,58.3-36.1,29.8-72.2,59.5-108.4,89.2-30.2,24.8-60.7,49.4-90.9,74.3-26.4,21.8-43.4,48.8-43.2,84.1.2,24.1,9.7,43.3,31.8,55.3,1.6.8,3.1,1.4,4.8,2.1M530.8,494.4c-11.1,19.6-25.4,39.6-65.7,49.6-5.1,1.3-10.6,1.7-15.9,1.7-89.2,0-178.3,0-267.5,0-1.6,0-3.3,0-4.6,0-.5-.7-.9-1-.9-1.2-.9-37.1.9-49.2.9-50.1M214.1,90.5c31.3,0,62.7-.4,94-.6,1.8,0,4.5-.5,5.4-1.6l.6-1.2c.6-1.3,7.2-12.9,9.5-28s.9-7,.9-7c-60.9,0-135.6.2-196.5.4-12,0-24.1,0-35.8,1.6-18.6,2.6-36.3,19.4-39.1,36M444.1,494.8"/></g></svg>